<svg id="Ebene_1" data-name="Ebene 1" xmlns="http://www.w3.org/2000/svg" viewBox="0 0 108.25 47.5"><defs><style>.cls-1{fill:#fff;}</style></defs><path class="cls-1" d="M772.26,601.3l-1.54-4.09H762.2l-1.54,4.09h-2.55L765,583.57h2.84l6.93,17.73ZM770,595.19l-3.51-9.36L763,595.19Z" transform="translate(-757.2 -583.57)"/><path class="cls-1" d="M784.28,583.57c5.27,0,8.74,3.77,8.74,8.86s-3.47,8.87-8.74,8.87h-6.1V583.57Zm0,15.7c3.81,0,6.24-2.69,6.24-6.84s-2.43-6.84-6.24-6.84h-3.7v13.68Z" transform="translate(-757.2 -583.57)"/><path class="cls-1" d="M800.06,594.23v7.07h-2.4V583.57h7.7a5.08,5.08,0,0,1,5.12,5.33,5.13,5.13,0,0,1-3.43,5.06l4.31,7.34h-2.85l-3.87-7.07Zm5.3-2c1.44,0,2.62-1.18,2.62-3.32s-1.17-3.3-2.62-3.3h-5.3v6.62Z" transform="translate(-757.2 -583.57)"/><path class="cls-1" d="M814.73,601.3V583.57h2.41V601.3Z" transform="translate(-757.2 -583.57)"/><path class="cls-1" d="M834.63,601.3l-1.53-4.09h-8.53L823,601.3h-2.55l6.92-17.73h2.84l6.93,17.73Zm-2.29-6.11-3.51-9.36-3.51,9.36Z" transform="translate(-757.2 -583.57)"/><path class="cls-1" d="M855,601.3h-2.12L842.82,588V601.3h-2.4V583.57h2.12l10.09,13.34V583.57H855Z" transform="translate(-757.2 -583.57)"/><path class="cls-1" d="M773.64,630.72l-4.36-15.27-4.37,15.27h-3.15L757.2,613h2.57l3.66,14.73L767.5,613h3.55l4.07,14.73L778.78,613h2.58l-4.57,17.73Z" transform="translate(-757.2 -583.57)"/><path class="cls-1" d="M799.15,624.72c0,3.51-2.84,6.35-7.22,6.35s-7.22-2.84-7.22-6.35V613h2.4v11.73c0,2.5,1.85,4.23,4.82,4.23s4.81-1.72,4.81-4.23V613h2.41Zm-8.65-15.19a1.33,1.33,0,1,1-1.33-1.34A1.33,1.33,0,0,1,790.5,609.53Zm5.4,0a1.34,1.34,0,1,1-1.34-1.34A1.34,1.34,0,0,1,795.9,609.53Z" transform="translate(-757.2 -583.57)"/><path class="cls-1" d="M809.77,612.64a9.65,9.65,0,0,1,6.37,2.28l-1.32,1.66a7.91,7.91,0,0,0-5.09-1.7c-2.32,0-3.86.81-3.86,2.93,0,1.38.69,1.84,4.39,2.83,2.75.73,6.19,1.46,6.25,5.09s-3.5,5.35-6.65,5.35a9.34,9.34,0,0,1-7-3l1.31-1.64a7.63,7.63,0,0,0,5.64,2.45c2.19,0,4.15-1,4.14-3.06s-1.75-2.25-4.39-3c-4.51-1.22-6.22-2.29-6.24-5.05,0-3.79,3.29-5.16,6.4-5.16Z" transform="translate(-757.2 -583.57)"/><path class="cls-1" d="M826.83,615v15.7H824.4V615h-5.79v-2h14v2Z" transform="translate(-757.2 -583.57)"/><path class="cls-1" d="M847.89,630.72H836V613h11.65v2h-9.25v5.41h8.26v2h-8.26v6.25h9.5Z" transform="translate(-757.2 -583.57)"/><path class="cls-1" d="M854.15,623.65v7.07h-2.41V613h7.71a5.07,5.07,0,0,1,5.11,5.33,5.12,5.12,0,0,1-3.42,5.06l4.31,7.34h-2.86l-3.86-7.07Zm5.3-2c1.43,0,2.61-1.18,2.61-3.32s-1.17-3.29-2.61-3.29h-5.3v6.61Z" transform="translate(-757.2 -583.57)"/></svg>