<svg id="Ebene_1" data-name="Ebene 1" xmlns="http://www.w3.org/2000/svg" viewBox="0 0 169.75 102.85"><defs><style>.cls-1{fill:#fff;}</style></defs><path class="cls-1" d="M728.83,650.53h15.7V653h-15.7v5.79h-2v-14h2Z" transform="translate(-726.45 -555.9)"/><path class="cls-1" d="M744.53,629.47v11.9H726.8V629.72h2V639h5.41v-8.26h2V639h6.25v-9.5Z" transform="translate(-726.45 -555.9)"/><path class="cls-1" d="M744.53,611.13v2.12l-13.34,10.09h13.34v2.41H726.8v-2.12l13.34-10.09H726.8v-2.41Z" transform="translate(-726.45 -555.9)"/><path class="cls-1" d="M744.53,591.65v2.12l-13.34,10.09h13.34v2.41H726.8v-2.12l13.34-10.09H726.8v-2.41Z" transform="translate(-726.45 -555.9)"/><path class="cls-1" d="M744.53,586.65H726.8v-2.41h17.73Z" transform="translate(-726.45 -555.9)"/><path class="cls-1" d="M726.45,573.52a9.67,9.67,0,0,1,2.28-6.37l1.66,1.32a7.92,7.92,0,0,0-1.71,5.09c0,2.32.82,3.86,2.94,3.86,1.38,0,1.84-.69,2.82-4.39.74-2.75,1.47-6.19,5.1-6.24s5.34,3.49,5.34,6.64a9.34,9.34,0,0,1-3,7l-1.64-1.31a7.63,7.63,0,0,0,2.45-5.64c0-2.19-1-4.15-3.06-4.14s-2.25,1.75-3,4.39c-1.23,4.51-2.29,6.22-5,6.24-3.8,0-5.16-3.29-5.16-6.4Z" transform="translate(-726.45 -555.9)"/><path class="cls-1" d="M754.36,651.47a9.67,9.67,0,0,1,2.28-6.37l1.66,1.32a7.92,7.92,0,0,0-1.71,5.09c0,2.32.81,3.86,2.94,3.86,1.37,0,1.84-.69,2.82-4.38.74-2.76,1.47-6.2,5.1-6.25s5.34,3.49,5.34,6.64a9.38,9.38,0,0,1-3,7L768.13,657a7.6,7.6,0,0,0,2.46-5.63c0-2.2-1.05-4.16-3.07-4.15s-2.24,1.76-2.95,4.39c-1.23,4.51-2.29,6.23-5.06,6.24-3.79,0-5.15-3.29-5.15-6.4Z" transform="translate(-726.45 -555.9)"/><path class="cls-1" d="M756.84,625.84l1.83.67a11.25,11.25,0,0,0-2,6.19c0,3.66,2.9,6.16,6.93,6.16s7-2.51,7-6.18a11.35,11.35,0,0,0-2-6.17l1.82-.67a11.53,11.53,0,0,1,2.49,6.84c0,5.23-4.12,8.68-9.22,8.68s-9.25-3.45-9.21-8.68A11.47,11.47,0,0,1,756.84,625.84Z" transform="translate(-726.45 -555.9)"/><path class="cls-1" d="M772.44,606.51v2.4h-8.27v10.17h8.27v2.4H754.71v-2.4h7.43V608.91h-7.43v-2.4Z" transform="translate(-726.45 -555.9)"/><path class="cls-1" d="M766.44,586.93c3.51,0,6.35,2.84,6.35,7.22s-2.84,7.22-6.35,7.22H754.71V599h11.73c2.5,0,4.23-1.84,4.23-4.81s-1.73-4.82-4.23-4.82H754.71v-2.4Z" transform="translate(-726.45 -555.9)"/><path class="cls-1" d="M772.44,571.17v10.74H754.71V579.5h15.7v-8.33Z" transform="translate(-726.45 -555.9)"/><path class="cls-1" d="M772.44,555.9v11.9H754.71V556.15h2v9.24h5.41v-8.25h2v8.25h6.24V555.9Z" transform="translate(-726.45 -555.9)"/><path class="cls-1" d="M803,573.69l-1.54-4.09h-8.53l-1.53,4.09h-2.55L795.79,556h2.84l6.92,17.72Zm-2.29-6.11-3.51-9.35-3.51,9.35Z" transform="translate(-726.45 -555.9)"/><path class="cls-1" d="M815,556c5.27,0,8.74,3.76,8.74,8.86s-3.47,8.86-8.74,8.86h-6.1V556Zm0,15.7c3.81,0,6.24-2.7,6.24-6.84S818.84,558,815,558h-3.7v13.68Z" transform="translate(-726.45 -555.9)"/><path class="cls-1" d="M830.81,566.62v7.07h-2.4V556h7.7a5.07,5.07,0,0,1,5.12,5.33,5.13,5.13,0,0,1-3.43,5.05l4.31,7.34h-2.86l-3.86-7.07Zm5.3-2c1.43,0,2.61-1.18,2.61-3.32s-1.16-3.29-2.61-3.29h-5.3v6.61Z" transform="translate(-726.45 -555.9)"/><path class="cls-1" d="M845.48,573.69V556h2.41v17.72Z" transform="translate(-726.45 -555.9)"/><path class="cls-1" d="M865.38,573.69l-1.53-4.09h-8.53l-1.54,4.09h-2.55L858.16,556H861l6.93,17.72Zm-2.29-6.11-3.51-9.35-3.51,9.35Z" transform="translate(-726.45 -555.9)"/><path class="cls-1" d="M885.78,573.69h-2.12l-10.09-13.34v13.34h-2.41V556h2.12l10.09,13.33V556h2.41Z" transform="translate(-726.45 -555.9)"/><path class="cls-1" d="M804.39,603.11,800,587.85l-4.36,15.26h-3.15L788,585.39h2.57l3.66,14.72,4.07-14.72h3.55l4.07,14.72,3.66-14.72h2.57l-4.56,17.72Z" transform="translate(-726.45 -555.9)"/><path class="cls-1" d="M829.9,597.11c0,3.52-2.85,6.36-7.22,6.36s-7.22-2.84-7.22-6.36V585.39h2.4v11.72c0,2.51,1.85,4.24,4.82,4.24s4.81-1.73,4.81-4.24V585.39h2.41Zm-8.65-15.19a1.34,1.34,0,1,1-1.33-1.33A1.33,1.33,0,0,1,821.25,581.92Zm5.39,0a1.34,1.34,0,1,1-1.33-1.33A1.33,1.33,0,0,1,826.64,581.92Z" transform="translate(-726.45 -555.9)"/><path class="cls-1" d="M840.52,585a9.68,9.68,0,0,1,6.37,2.29L845.57,589a7.86,7.86,0,0,0-5.09-1.71c-2.32,0-3.86.81-3.86,2.94,0,1.37.69,1.83,4.39,2.82,2.75.74,6.19,1.47,6.24,5.1s-3.49,5.34-6.64,5.34a9.34,9.34,0,0,1-7-3l1.31-1.64a7.6,7.6,0,0,0,5.63,2.46c2.2,0,4.16-1,4.15-3.07s-1.76-2.24-4.39-3c-4.51-1.22-6.23-2.28-6.24-5,0-3.79,3.29-5.16,6.4-5.16Z" transform="translate(-726.45 -555.9)"/><path class="cls-1" d="M857.58,587.41v15.7h-2.43v-15.7h-5.79v-2h14v2Z" transform="translate(-726.45 -555.9)"/><path class="cls-1" d="M878.64,603.11H866.73V585.39h11.66v2h-9.25v5.41h8.26v2h-8.26v6.25h9.5Z" transform="translate(-726.45 -555.9)"/><path class="cls-1" d="M884.9,596.05v7.06h-2.41V585.39h7.7a5.38,5.38,0,0,1,1.7,10.38l4.31,7.34h-2.86l-3.86-7.06Zm5.29-2c1.44,0,2.62-1.19,2.62-3.32s-1.17-3.3-2.62-3.3H884.9V594Z" transform="translate(-726.45 -555.9)"/></svg>