<svg id="Ebene_1" data-name="Ebene 1" xmlns="http://www.w3.org/2000/svg" viewBox="0 0 46.34 102.85"><defs><style>.cls-1{fill:#fff;}</style></defs><path class="cls-1" d="M939.39,583.38h15.7v2.42h-15.7v5.8h-2v-14h2Z" transform="translate(-937.01 -488.74)"/><path class="cls-1" d="M955.09,562.31v11.91H937.36V562.57h2v9.24h5.41v-8.26h2v8.26h6.25v-9.5Z" transform="translate(-937.01 -488.74)"/><path class="cls-1" d="M955.09,544v2.12l-13.34,10.09h13.34v2.4H937.36v-2.12l13.34-10.09H937.36V544Z" transform="translate(-937.01 -488.74)"/><path class="cls-1" d="M955.09,524.5v2.12l-13.34,10.09h13.34v2.4H937.36V537L950.7,526.9H937.36v-2.4Z" transform="translate(-937.01 -488.74)"/><path class="cls-1" d="M955.09,519.5H937.36v-2.41h17.73Z" transform="translate(-937.01 -488.74)"/><path class="cls-1" d="M937,506.37a9.7,9.7,0,0,1,2.28-6.38l1.66,1.32a7.94,7.94,0,0,0-1.7,5.09c0,2.33.81,3.86,2.93,3.86,1.38,0,1.84-.69,2.83-4.38.73-2.76,1.46-6.19,5.09-6.25s5.35,3.5,5.35,6.65a9.34,9.34,0,0,1-3,7l-1.64-1.31a7.63,7.63,0,0,0,2.45-5.64c0-2.19-1-4.15-3.06-4.15s-2.25,1.76-3,4.4c-1.22,4.5-2.29,6.22-5.05,6.24-3.79,0-5.16-3.29-5.16-6.4Z" transform="translate(-937.01 -488.74)"/><path class="cls-1" d="M964.92,584.32a9.7,9.7,0,0,1,2.28-6.38l1.66,1.32a8,8,0,0,0-1.71,5.1c0,2.32.81,3.86,2.94,3.86,1.38,0,1.84-.7,2.82-4.39.74-2.76,1.47-6.19,5.1-6.25s5.34,3.5,5.34,6.65a9.34,9.34,0,0,1-3,6.95l-1.64-1.31a7.63,7.63,0,0,0,2.45-5.64c0-2.19-1-4.15-3.07-4.14s-2.24,1.75-3,4.39c-1.23,4.5-2.29,6.22-5.06,6.24-3.79,0-5.15-3.29-5.15-6.4Z" transform="translate(-937.01 -488.74)"/><path class="cls-1" d="M967.41,558.69l1.82.66a11.27,11.27,0,0,0-2,6.19c0,3.67,2.9,6.17,6.93,6.17s7-2.51,7-6.18a11.45,11.45,0,0,0-2-6.18l1.81-.66a11.53,11.53,0,0,1,2.49,6.84c0,5.23-4.12,8.68-9.22,8.68s-9.25-3.45-9.21-8.68A11.42,11.42,0,0,1,967.41,558.69Z" transform="translate(-937.01 -488.74)"/><path class="cls-1" d="M983,539.35v2.41h-8.27v10.16H983v2.41H965.27v-2.41h7.43V541.76h-7.43v-2.41Z" transform="translate(-937.01 -488.74)"/><path class="cls-1" d="M977,519.77c3.51,0,6.35,2.85,6.35,7.22s-2.84,7.22-6.35,7.22H965.27v-2.4H977c2.5,0,4.23-1.85,4.23-4.82s-1.72-4.81-4.23-4.81H965.27v-2.41Z" transform="translate(-937.01 -488.74)"/><path class="cls-1" d="M983,504v10.74H965.27v-2.41H981V504Z" transform="translate(-937.01 -488.74)"/><path class="cls-1" d="M983,488.74v11.9H965.27V489h2v9.25h5.41V490h2v8.26H981v-9.5Z" transform="translate(-937.01 -488.74)"/></svg>